<svg width="347" height="39" viewBox="0 0 347 39" fill="none" xmlns="http://www.w3.org/2000/svg">
<path d="M6.5 12.5H335.5" stroke="#D9D9D9" stroke-dasharray="4 4"/>
<circle cx="15.9474" cy="10.9474" r="10.9474" fill="#133FDA"/>
<circle cx="225.947" cy="10.9474" r="10.9474" fill="#C9D4FA"/>
<circle cx="120.947" cy="10.9474" r="10.9474" fill="#C9D4FA"/>
<circle cx="330.947" cy="10.9474" r="10.9474" fill="#C9D4FA"/>
<path d="M17.1825 6.27273V15H16.1257V7.38068H16.0746L13.9439 8.79545V7.72159L16.1257 6.27273H17.1825Z" fill="white"/>
<path d="M0.982031 36V29.44H1.81203V36H0.982031ZM5.18898 36.12C4.58232 36.12 4.09565 35.9 3.72898 35.46C3.36232 35.0133 3.17898 34.3867 3.17898 33.58C3.17898 33.0533 3.27565 32.6 3.46898 32.22C3.66898 31.8333 3.92898 31.5367 4.24898 31.33C4.57565 31.1233 4.92232 31.02 5.28898 31.02C5.56898 31.02 5.81232 31.07 6.01898 31.17C6.22565 31.27 6.43565 31.4067 6.64898 31.58L6.60898 30.75V28.88H7.43898V36H6.75898L6.68898 35.43H6.65898C6.47232 35.6167 6.25232 35.78 5.99898 35.92C5.74565 36.0533 5.47565 36.12 5.18898 36.12ZM5.36898 35.43C5.79565 35.43 6.20898 35.2067 6.60898 34.76V32.22C6.40232 32.0333 6.20232 31.9033 6.00898 31.83C5.82232 31.75 5.62898 31.71 5.42898 31.71C5.16898 31.71 4.93232 31.79 4.71898 31.95C4.51232 32.1033 4.34565 32.32 4.21898 32.6C4.09232 32.8733 4.02898 33.1967 4.02898 33.57C4.02898 34.15 4.14565 34.6067 4.37898 34.94C4.61232 35.2667 4.94232 35.43 5.36898 35.43ZM11.0459 36.12C10.6125 36.12 10.2192 36.02 9.86586 35.82C9.51253 35.6133 9.23253 35.32 9.02586 34.94C8.81919 34.56 8.71586 34.1067 8.71586 33.58C8.71586 33.0467 8.81919 32.59 9.02586 32.21C9.23919 31.83 9.51253 31.5367 9.84586 31.33C10.1792 31.1233 10.5292 31.02 10.8959 31.02C11.5159 31.02 11.9925 31.2267 12.3259 31.64C12.6659 32.0533 12.8359 32.6067 12.8359 33.3C12.8359 33.3867 12.8325 33.4733 12.8259 33.56C12.8259 33.64 12.8192 33.71 12.8059 33.77H9.52586C9.55919 34.2833 9.71919 34.6933 10.0059 35C10.2992 35.3067 10.6792 35.46 11.1459 35.46C11.3792 35.46 11.5925 35.4267 11.7859 35.36C11.9859 35.2867 12.1759 35.1933 12.3559 35.08L12.6459 35.62C12.4392 35.7533 12.2025 35.87 11.9359 35.97C11.6759 36.07 11.3792 36.12 11.0459 36.12ZM9.51586 33.18H12.1159C12.1159 32.6867 12.0092 32.3133 11.7959 32.06C11.5892 31.8 11.2959 31.67 10.9159 31.67C10.5759 31.67 10.2692 31.8033 9.99586 32.07C9.72919 32.33 9.56919 32.7 9.51586 33.18ZM14.0368 36V31.14H14.7168L14.7868 31.84H14.8168C15.0501 31.6067 15.2968 31.4133 15.5568 31.26C15.8168 31.1 16.1135 31.02 16.4468 31.02C16.9601 31.02 17.3335 31.1833 17.5668 31.51C17.8068 31.83 17.9268 32.3 17.9268 32.92V36H17.1068V33.03C17.1068 32.5767 17.0335 32.2467 16.8868 32.04C16.7401 31.8333 16.5068 31.73 16.1868 31.73C15.9401 31.73 15.7168 31.7933 15.5168 31.92C15.3235 32.0467 15.1035 32.2333 14.8568 32.48V36H14.0368ZM21.0355 36.12C20.5155 36.12 20.1522 35.97 19.9455 35.67C19.7455 35.37 19.6455 34.98 19.6455 34.5V31.81H18.9255V31.19L19.6855 31.14L19.7855 29.78H20.4755V31.14H21.7855V31.81H20.4755V34.51C20.4755 34.81 20.5289 35.0433 20.6355 35.21C20.7489 35.37 20.9455 35.45 21.2255 35.45C21.3122 35.45 21.4055 35.4367 21.5055 35.41C21.6055 35.3767 21.6955 35.3467 21.7755 35.32L21.9355 35.94C21.8022 35.9867 21.6555 36.0267 21.4955 36.06C21.3422 36.1 21.1889 36.12 21.0355 36.12ZM22.8845 36V31.14H23.7045V36H22.8845ZM23.3045 30.14C23.1445 30.14 23.0111 30.0933 22.9045 30C22.8045 29.9 22.7545 29.7667 22.7545 29.6C22.7545 29.44 22.8045 29.31 22.9045 29.21C23.0111 29.11 23.1445 29.06 23.3045 29.06C23.4645 29.06 23.5945 29.11 23.6945 29.21C23.8011 29.31 23.8545 29.44 23.8545 29.6C23.8545 29.7667 23.8011 29.9 23.6945 30C23.5945 30.0933 23.4645 30.14 23.3045 30.14ZM26.8754 36.12C26.3554 36.12 25.9921 35.97 25.7854 35.67C25.5854 35.37 25.4854 34.98 25.4854 34.5V31.81H24.7654V31.19L25.5254 31.14L25.6254 29.78H26.3154V31.14H27.6254V31.81H26.3154V34.51C26.3154 34.81 26.3687 35.0433 26.4754 35.21C26.5887 35.37 26.7854 35.45 27.0654 35.45C27.1521 35.45 27.2454 35.4367 27.3454 35.41C27.4454 35.3767 27.5354 35.3467 27.6154 35.32L27.7754 35.94C27.6421 35.9867 27.4954 36.0267 27.3354 36.06C27.1821 36.1 27.0287 36.12 26.8754 36.12ZM29.6295 36.12C29.2228 36.12 28.8828 36 28.6095 35.76C28.3428 35.5133 28.2095 35.1733 28.2095 34.74C28.2095 34.2067 28.4461 33.8 28.9195 33.52C29.3995 33.2333 30.1561 33.0333 31.1895 32.92C31.1895 32.7133 31.1595 32.5167 31.0995 32.33C31.0461 32.1433 30.9461 31.9933 30.7995 31.88C30.6595 31.76 30.4561 31.7 30.1895 31.7C29.9095 31.7 29.6461 31.7533 29.3995 31.86C29.1528 31.9667 28.9328 32.0867 28.7395 32.22L28.4195 31.65C28.6461 31.5033 28.9228 31.3633 29.2495 31.23C29.5828 31.09 29.9428 31.02 30.3295 31.02C30.9228 31.02 31.3528 31.2033 31.6195 31.57C31.8861 31.93 32.0195 32.4133 32.0195 33.02V36H31.3395L31.2695 35.42H31.2395C31.0128 35.6067 30.7628 35.77 30.4895 35.91C30.2228 36.05 29.9361 36.12 29.6295 36.12ZM29.8695 35.46C30.1028 35.46 30.3228 35.4033 30.5295 35.29C30.7361 35.1767 30.9561 35.0167 31.1895 34.81V33.46C30.3828 33.56 29.8161 33.71 29.4895 33.91C29.1695 34.11 29.0095 34.3667 29.0095 34.68C29.0095 34.9533 29.0928 35.1533 29.2595 35.28C29.4261 35.4 29.6295 35.46 29.8695 35.46ZM34.8185 36.12C34.4718 36.12 34.1418 36.0567 33.8285 35.93C33.5152 35.7967 33.2418 35.6367 33.0085 35.45L33.4185 34.9C33.6318 35.0667 33.8518 35.2067 34.0785 35.32C34.3052 35.4267 34.5618 35.48 34.8485 35.48C35.1685 35.48 35.4085 35.4067 35.5685 35.26C35.7285 35.1067 35.8085 34.9267 35.8085 34.72C35.8085 34.5533 35.7518 34.4133 35.6385 34.3C35.5318 34.1867 35.3918 34.0933 35.2185 34.02C35.0518 33.94 34.8785 33.8667 34.6985 33.8C34.4718 33.7133 34.2485 33.6167 34.0285 33.51C33.8085 33.3967 33.6285 33.2533 33.4885 33.08C33.3485 32.9 33.2785 32.6733 33.2785 32.4C33.2785 32.0067 33.4252 31.68 33.7185 31.42C34.0185 31.1533 34.4318 31.02 34.9585 31.02C35.2585 31.02 35.5385 31.0733 35.7985 31.18C36.0585 31.2867 36.2818 31.4167 36.4685 31.57L36.0685 32.09C35.9018 31.9633 35.7285 31.86 35.5485 31.78C35.3685 31.7 35.1718 31.66 34.9585 31.66C34.6518 31.66 34.4252 31.73 34.2785 31.87C34.1385 32.01 34.0685 32.1733 34.0685 32.36C34.0685 32.5133 34.1185 32.64 34.2185 32.74C34.3185 32.8333 34.4485 32.9167 34.6085 32.99C34.7685 33.0567 34.9385 33.1267 35.1185 33.2C35.3518 33.2867 35.5818 33.3867 35.8085 33.5C36.0352 33.6067 36.2218 33.7533 36.3685 33.94C36.5218 34.12 36.5985 34.3633 36.5985 34.67C36.5985 34.93 36.5285 35.17 36.3885 35.39C36.2552 35.61 36.0552 35.7867 35.7885 35.92C35.5285 36.0533 35.2052 36.12 34.8185 36.12Z" fill="#133FDA"/>
<path d="M112.271 36V29.44H113.911C114.924 29.44 115.694 29.7233 116.221 30.29C116.748 30.85 117.011 31.65 117.011 32.69C117.011 33.7367 116.748 34.55 116.221 35.13C115.701 35.71 114.944 36 113.951 36H112.271ZM113.101 35.32H113.851C114.618 35.32 115.191 35.09 115.571 34.63C115.958 34.1633 116.151 33.5167 116.151 32.69C116.151 31.8633 115.958 31.23 115.571 30.79C115.191 30.3433 114.618 30.12 113.851 30.12H113.101V35.32ZM119.463 36.12C119.057 36.12 118.717 36 118.443 35.76C118.177 35.5133 118.043 35.1733 118.043 34.74C118.043 34.2067 118.28 33.8 118.753 33.52C119.233 33.2333 119.99 33.0333 121.023 32.92C121.023 32.7133 120.993 32.5167 120.933 32.33C120.88 32.1433 120.78 31.9933 120.633 31.88C120.493 31.76 120.29 31.7 120.023 31.7C119.743 31.7 119.48 31.7533 119.233 31.86C118.987 31.9667 118.767 32.0867 118.573 32.22L118.253 31.65C118.48 31.5033 118.757 31.3633 119.083 31.23C119.417 31.09 119.777 31.02 120.163 31.02C120.757 31.02 121.187 31.2033 121.453 31.57C121.72 31.93 121.853 32.4133 121.853 33.02V36H121.173L121.103 35.42H121.073C120.847 35.6067 120.597 35.77 120.323 35.91C120.057 36.05 119.77 36.12 119.463 36.12ZM119.703 35.46C119.937 35.46 120.157 35.4033 120.363 35.29C120.57 35.1767 120.79 35.0167 121.023 34.81V33.46C120.217 33.56 119.65 33.71 119.323 33.91C119.003 34.11 118.843 34.3667 118.843 34.68C118.843 34.9533 118.927 35.1533 119.093 35.28C119.26 35.4 119.463 35.46 119.703 35.46ZM124.776 36.12C124.256 36.12 123.892 35.97 123.686 35.67C123.486 35.37 123.386 34.98 123.386 34.5V31.81H122.666V31.19L123.426 31.14L123.526 29.78H124.216V31.14H125.526V31.81H124.216V34.51C124.216 34.81 124.269 35.0433 124.376 35.21C124.489 35.37 124.686 35.45 124.966 35.45C125.052 35.45 125.146 35.4367 125.246 35.41C125.346 35.3767 125.436 35.3467 125.516 35.32L125.676 35.94C125.542 35.9867 125.396 36.0267 125.236 36.06C125.082 36.1 124.929 36.12 124.776 36.12ZM127.53 36.12C127.123 36.12 126.783 36 126.51 35.76C126.243 35.5133 126.11 35.1733 126.11 34.74C126.11 34.2067 126.347 33.8 126.82 33.52C127.3 33.2333 128.057 33.0333 129.09 32.92C129.09 32.7133 129.06 32.5167 129 32.33C128.947 32.1433 128.847 31.9933 128.7 31.88C128.56 31.76 128.357 31.7 128.09 31.7C127.81 31.7 127.547 31.7533 127.3 31.86C127.053 31.9667 126.833 32.0867 126.64 32.22L126.32 31.65C126.547 31.5033 126.823 31.3633 127.15 31.23C127.483 31.09 127.843 31.02 128.23 31.02C128.823 31.02 129.253 31.2033 129.52 31.57C129.787 31.93 129.92 32.4133 129.92 33.02V36H129.24L129.17 35.42H129.14C128.913 35.6067 128.663 35.77 128.39 35.91C128.123 36.05 127.837 36.12 127.53 36.12ZM127.77 35.46C128.003 35.46 128.223 35.4033 128.43 35.29C128.637 35.1767 128.857 35.0167 129.09 34.81V33.46C128.283 33.56 127.717 33.71 127.39 33.91C127.07 34.11 126.91 34.3667 126.91 34.68C126.91 34.9533 126.993 35.1533 127.16 35.28C127.327 35.4 127.53 35.46 127.77 35.46Z" fill="#C9D4FA"/>
<path d="M213.38 36V30.14H211.4V29.44H216.2V30.14H214.22V36H213.38ZM218.262 36.12C217.749 36.12 217.372 35.96 217.132 35.64C216.892 35.3133 216.772 34.84 216.772 34.22V31.14H217.602V34.11C217.602 34.5633 217.672 34.8933 217.812 35.1C217.959 35.3067 218.192 35.41 218.512 35.41C218.766 35.41 218.989 35.3467 219.182 35.22C219.382 35.0867 219.596 34.8767 219.822 34.59V31.14H220.642V36H219.962L219.892 35.24H219.862C219.636 35.5067 219.396 35.72 219.142 35.88C218.889 36.04 218.596 36.12 218.262 36.12ZM221.782 38.17C221.635 38.17 221.502 38.1567 221.382 38.13C221.255 38.1033 221.149 38.0733 221.062 38.04L221.232 37.42C221.292 37.44 221.362 37.4567 221.442 37.47C221.522 37.49 221.605 37.5 221.692 37.5C221.932 37.5 222.092 37.4133 222.172 37.24C222.252 37.0733 222.292 36.8433 222.292 36.55V31.14H223.112V36.55C223.112 37.0433 223.012 37.4367 222.812 37.73C222.612 38.0233 222.269 38.17 221.782 38.17ZM222.692 30.14C222.532 30.14 222.399 30.0933 222.292 30C222.192 29.9 222.142 29.7667 222.142 29.6C222.142 29.44 222.192 29.31 222.292 29.21C222.399 29.11 222.532 29.06 222.692 29.06C222.852 29.06 222.982 29.11 223.082 29.21C223.189 29.31 223.242 29.44 223.242 29.6C223.242 29.7667 223.189 29.9 223.082 30C222.982 30.0933 222.852 30.14 222.692 30.14ZM226.173 36.12C225.659 36.12 225.283 35.96 225.043 35.64C224.803 35.3133 224.683 34.84 224.683 34.22V31.14H225.513V34.11C225.513 34.5633 225.583 34.8933 225.723 35.1C225.869 35.3067 226.103 35.41 226.423 35.41C226.676 35.41 226.899 35.3467 227.093 35.22C227.293 35.0867 227.506 34.8767 227.733 34.59V31.14H228.553V36H227.873L227.803 35.24H227.773C227.546 35.5067 227.306 35.72 227.053 35.88C226.799 36.04 226.506 36.12 226.173 36.12ZM231.312 36.12C230.905 36.12 230.565 36 230.292 35.76C230.025 35.5133 229.892 35.1733 229.892 34.74C229.892 34.2067 230.129 33.8 230.602 33.52C231.082 33.2333 231.839 33.0333 232.872 32.92C232.872 32.7133 232.842 32.5167 232.782 32.33C232.729 32.1433 232.629 31.9933 232.482 31.88C232.342 31.76 232.139 31.7 231.872 31.7C231.592 31.7 231.329 31.7533 231.082 31.86C230.835 31.9667 230.615 32.0867 230.422 32.22L230.102 31.65C230.329 31.5033 230.605 31.3633 230.932 31.23C231.265 31.09 231.625 31.02 232.012 31.02C232.605 31.02 233.035 31.2033 233.302 31.57C233.569 31.93 233.702 32.4133 233.702 33.02V36H233.022L232.952 35.42H232.922C232.695 35.6067 232.445 35.77 232.172 35.91C231.905 36.05 231.619 36.12 231.312 36.12ZM231.552 35.46C231.785 35.46 232.005 35.4033 232.212 35.29C232.419 35.1767 232.639 35.0167 232.872 34.81V33.46C232.065 33.56 231.499 33.71 231.172 33.91C230.852 34.11 230.692 34.3667 230.692 34.68C230.692 34.9533 230.775 35.1533 230.942 35.28C231.109 35.4 231.312 35.46 231.552 35.46ZM235.231 36V31.14H235.911L235.981 31.84H236.011C236.244 31.6067 236.491 31.4133 236.751 31.26C237.011 31.1 237.308 31.02 237.641 31.02C238.154 31.02 238.528 31.1833 238.761 31.51C239.001 31.83 239.121 32.3 239.121 32.92V36H238.301V33.03C238.301 32.5767 238.228 32.2467 238.081 32.04C237.934 31.8333 237.701 31.73 237.381 31.73C237.134 31.73 236.911 31.7933 236.711 31.92C236.518 32.0467 236.298 32.2333 236.051 32.48V36H235.231Z" fill="#C9D4FA"/>
<path d="M318.017 36V29.44H318.847V32.73H318.877L321.607 29.44H322.547L320.497 31.94L322.867 36H321.937L319.977 32.59L318.847 33.92V36H318.017ZM325.55 36.12C325.157 36.12 324.787 36.02 324.44 35.82C324.1 35.62 323.823 35.33 323.61 34.95C323.403 34.57 323.3 34.1133 323.3 33.58C323.3 33.0333 323.403 32.57 323.61 32.19C323.823 31.81 324.1 31.52 324.44 31.32C324.787 31.12 325.157 31.02 325.55 31.02C325.95 31.02 326.32 31.12 326.66 31.32C327 31.52 327.273 31.81 327.48 32.19C327.693 32.57 327.8 33.0333 327.8 33.58C327.8 34.1133 327.693 34.57 327.48 34.95C327.273 35.33 327 35.62 326.66 35.82C326.32 36.02 325.95 36.12 325.55 36.12ZM325.55 35.44C325.97 35.44 326.307 35.27 326.56 34.93C326.82 34.5833 326.95 34.1333 326.95 33.58C326.95 33.02 326.82 32.5667 326.56 32.22C326.307 31.8733 325.97 31.7 325.55 31.7C325.137 31.7 324.8 31.8733 324.54 32.22C324.28 32.5667 324.15 33.02 324.15 33.58C324.15 34.1333 324.28 34.5833 324.54 34.93C324.8 35.27 325.137 35.44 325.55 35.44ZM329.08 36V31.14H329.76L329.83 31.84H329.86C330.093 31.6067 330.34 31.4133 330.6 31.26C330.86 31.1 331.156 31.02 331.49 31.02C332.003 31.02 332.376 31.1833 332.61 31.51C332.85 31.83 332.97 32.3 332.97 32.92V36H332.15V33.03C332.15 32.5767 332.076 32.2467 331.93 32.04C331.783 31.8333 331.55 31.73 331.23 31.73C330.983 31.73 330.76 31.7933 330.56 31.92C330.366 32.0467 330.146 32.2333 329.9 32.48V36H329.08ZM336.079 36.12C335.559 36.12 335.195 35.97 334.989 35.67C334.789 35.37 334.689 34.98 334.689 34.5V31.81H333.969V31.19L334.729 31.14L334.829 29.78H335.519V31.14H336.829V31.81H335.519V34.51C335.519 34.81 335.572 35.0433 335.679 35.21C335.792 35.37 335.989 35.45 336.269 35.45C336.355 35.45 336.449 35.4367 336.549 35.41C336.649 35.3767 336.739 35.3467 336.819 35.32L336.979 35.94C336.845 35.9867 336.699 36.0267 336.539 36.06C336.385 36.1 336.232 36.12 336.079 36.12ZM338.833 36.12C338.426 36.12 338.086 36 337.813 35.76C337.546 35.5133 337.413 35.1733 337.413 34.74C337.413 34.2067 337.649 33.8 338.123 33.52C338.603 33.2333 339.359 33.0333 340.393 32.92C340.393 32.7133 340.363 32.5167 340.303 32.33C340.249 32.1433 340.149 31.9933 340.003 31.88C339.863 31.76 339.659 31.7 339.393 31.7C339.113 31.7 338.849 31.7533 338.603 31.86C338.356 31.9667 338.136 32.0867 337.943 32.22L337.623 31.65C337.849 31.5033 338.126 31.3633 338.453 31.23C338.786 31.09 339.146 31.02 339.533 31.02C340.126 31.02 340.556 31.2033 340.823 31.57C341.089 31.93 341.223 32.4133 341.223 33.02V36H340.543L340.473 35.42H340.443C340.216 35.6067 339.966 35.77 339.693 35.91C339.426 36.05 339.139 36.12 338.833 36.12ZM339.073 35.46C339.306 35.46 339.526 35.4033 339.733 35.29C339.939 35.1767 340.159 35.0167 340.393 34.81V33.46C339.586 33.56 339.019 33.71 338.693 33.91C338.373 34.11 338.213 34.3667 338.213 34.68C338.213 34.9533 338.296 35.1533 338.463 35.28C338.629 35.4 338.833 35.46 339.073 35.46ZM342.752 36V28.88H343.562V33.7H343.592L345.662 31.14H346.572L344.942 33.09L346.792 36H345.892L344.472 33.66L343.562 34.72V36H342.752Z" fill="#C9D4FA"/>
</svg>
