<svg width="20" height="20" viewBox="0 0 20 20" fill="none" xmlns="http://www.w3.org/2000/svg">
<circle cx="10" cy="10" r="10" fill="#FEC600"/>
<path d="M9.24783 14.8461V8.46313H10.7428V14.8461H9.24783ZM10.0018 7.34513C9.73316 7.34513 9.51649 7.26713 9.35183 7.11113C9.18716 6.95513 9.10483 6.74713 9.10483 6.48713C9.10483 6.2358 9.18716 6.03213 9.35183 5.87613C9.51649 5.72013 9.73316 5.64213 10.0018 5.64213C10.2705 5.64213 10.4872 5.72013 10.6518 5.87613C10.8165 6.03213 10.8988 6.2358 10.8988 6.48713C10.8988 6.74713 10.8165 6.95513 10.6518 7.11113C10.4872 7.26713 10.2705 7.34513 10.0018 7.34513Z" fill="black"/>
</svg>
